# xmcd
#
# Track frame offsets:
# 150
# 10270
# 20261
# 30185
# 40453
# 51878
# 61655
# 72529
# 85224
# 95742
# 108058
# 115752
# 126903
# 136642
# 149321
# 157846
# 168714
# 178690
# 189740
# 198003
# 210157
# 222690
# 233705
# 243456
# 254359
# 267606
# 278037
# 305162
# 317389
# 328637
# 341088
#
# Disc length: 4783 seconds
#
#
# Revision: 0
# Processed by: cddbd v1.5.2PL0 Copyright (c) Steve Scherf et al.
# Submitted via: FreeRIP 2.951 
#
DISCID=bd12ad1f
DTITLE=The Shacklefords - The Shacklefords Sing
DYEAR=1994
DGENRE=Country
TTITLE0=Mama Was A Cottonpicker
TTITLE1=(There Goes) The Big Boss Man
TTITLE2=Sweet Molly
TTITLE3=Golden Bells
TTITLE4=If The World Don't End Tomorrow
TTITLE5=A Stranger In Your Town
TTITLE6=Our Little Boy Blue
TTITLE7=Caro-Lyn
TTITLE8=Big River
TTITLE9=After That
TTITLE10=Stand Up
TTITLE11=You'll Never Have My Love So True
TTITLE12=My Name Is Jimmy Brown
TTITLE13=The City Never Sleeps At Night
TTITLE14=One
TTITLE15=Ain't
TTITLE16=Mansion Of Tears
TTITLE17=Muddy Muddy River
TTITLE18=The Leaves
TTITLE19=Let The Good Times Roll
TTITLE20=Everything I Touch Turns To Tears
TTITLE21=Not The Lovin' Kind
TTITLE22=Five Feet High And Rising
TTITLE23=That Old Freight Train
TTITLE24=The Biplane Everymore
TTITLE25=First Street Blues
TTITLE26=Interview With Lee Hazlewood - Marty Cooper
TTITLE27=California Sunshine Girl
TTITLE28=Coastin'
TTITLE29=It's My Time
TTITLE30=One More Time Billy Brown
EXTD=LHI 1963067
EXTT0=
EXTT1=
EXTT2=
EXTT3=
EXTT4=
EXTT5=
EXTT6=
EXTT7=
EXTT8=
EXTT9=
EXTT10=
EXTT11=
EXTT12=
EXTT13=
EXTT14=
EXTT15=
EXTT16=
EXTT17=
EXTT18=
EXTT19=
EXTT20=
EXTT21=
EXTT22=
EXTT23=
EXTT24=
EXTT25=
EXTT26=
EXTT27=
EXTT28=
EXTT29=
EXTT30=
PLAYORDER=
